<?xml version="1.0" standalone="no"?>
<!DOCTYPE svg PUBLIC "-//W3C//DTD SVG 20010904//EN"
 "http://www.w3.org/TR/2001/REC-SVG-20010904/DTD/svg10.dtd">
<svg version="1.0" xmlns="http://www.w3.org/2000/svg"
 width="800.000000pt" height="800.000000pt" viewBox="0 0 800.000000 800.000000"
 preserveAspectRatio="xMidYMid meet">
<metadata>
Created by potrace 1.14, written by Peter Selinger 2001-2017
</metadata>
<g transform="translate(0.000000,800.000000) scale(0.100000,-0.100000)"
fill="#000000" stroke="none">
<path d="M3735 7424 c-16 -2 -82 -11 -145 -20 -156 -21 -391 -82 -536 -139
-591 -233 -1111 -717 -1385 -1290 -144 -301 -215 -584 -239 -953 -17 -255 10
-557 71 -795 157 -614 557 -1173 1097 -1529 l104 -68 1298 0 1298 0 104 68
c540 356 940 915 1097 1529 83 325 98 724 41 1078 -82 510 -308 954 -679 1338
-157 162 -279 265 -448 377 -237 158 -471 262 -737 330 -244 62 -336 73 -641
76 -148 1 -283 0 -300 -2z m573 -700 c527 -79 988 -383 1296 -856 292 -448
364 -1061 189 -1602 -45 -139 -163 -372 -251 -496 -77 -109 -294 -333 -396
-409 l-69 -51 -1077 0 -1077 0 -69 51 c-102 76 -319 300 -396 409 -88 124
-206 357 -251 496 -103 317 -122 653 -57 988 79 408 305 781 643 1062 313 262
638 391 1077 428 81 7 338 -5 438 -20z"/>
<path d="M2630 1940 l0 -340 1370 0 1370 0 0 340 0 340 -1370 0 -1370 0 0
-340z"/>
<path d="M3283 1193 c-63 -136 -35 -263 82 -371 111 -103 310 -205 465 -238
86 -18 259 -18 339 1 199 47 400 228 475 426 20 52 46 184 46 230 0 5 -273 9
-691 9 l-690 0 -26 -57z"/>
</g>
</svg>
