<svg id="visual" viewBox="0 0 900 600" width="900" height="600" xmlns="http://www.w3.org/2000/svg" xmlns:xlink="http://www.w3.org/1999/xlink" version="1.1"><g fill="#ebebeb"><circle r="18" cx="511" cy="327"></circle><circle r="8" cx="500" cy="446"></circle><circle r="8" cx="310" cy="413"></circle><circle r="11" cx="153" cy="477"></circle><circle r="15" cx="264" cy="242"></circle><circle r="7" cx="404" cy="381"></circle><circle r="14" cx="241" cy="296"></circle><circle r="10" cx="575" cy="571"></circle><circle r="15" cx="577" cy="429"></circle><circle r="14" cx="624" cy="153"></circle><circle r="8" cx="882" cy="581"></circle><circle r="13" cx="293" cy="208"></circle><circle r="11" cx="517" cy="216"></circle><circle r="8" cx="779" cy="308"></circle><circle r="15" cx="186" cy="291"></circle><circle r="11" cx="722" cy="327"></circle><circle r="13" cx="46" cy="505"></circle><circle r="7" cx="78" cy="486"></circle><circle r="9" cx="42" cy="47"></circle><circle r="16" cx="471" cy="298"></circle><circle r="7" cx="632" cy="303"></circle><circle r="10" cx="644" cy="36"></circle><circle r="8" cx="857" cy="229"></circle><circle r="10" cx="384" cy="281"></circle><circle r="11" cx="879" cy="268"></circle></g></svg>